<svg width="225" height="180" viewBox="0 0 225 180" fill="none" xmlns="http://www.w3.org/2000/svg">
<path d="M208.011 168.892H15.493C14.0878 168.892 12.9502 167.753 12.9502 166.347C12.9502 164.941 14.0878 163.802 15.493 163.802H208.011C209.416 163.802 210.553 164.941 210.553 166.347C210.553 167.753 209.416 168.892 208.011 168.892Z" fill="url(#paint0_linear_160_3991)"/>
<path d="M192.335 103.329H168.793V162.761H192.335V103.329Z" fill="url(#paint1_linear_160_3991)"/>
<path d="M198.978 162.821H183.689V124.938L198.978 128.068V162.821Z" fill="url(#paint2_linear_160_3991)"/>
<path d="M39.8079 158.13H25.167V135.963L39.8079 129.706V158.13Z" fill="url(#paint3_linear_160_3991)"/>
<path d="M198.219 73.8428C198.599 73.8428 198.824 73.4175 198.608 73.1048C198.19 72.4995 197.455 71.7368 196.394 71.7075C194.624 71.6625 193.943 72.9788 193.943 72.9788C193.943 72.9788 193.988 70.0718 191.946 69.5273C189.905 68.9828 189.269 70.8908 189.269 70.8908C189.269 70.8908 188.632 65.5313 184.367 64.8045C180.1 64.0778 177.697 68.256 177.515 70.4363C177.515 70.4363 176.334 69.5273 174.747 70.3463C173.157 71.163 173.384 72.6638 173.384 72.6638C173.384 72.6638 172.388 72.0405 171.593 72.6255C171.388 72.7763 171.233 72.9293 171.116 73.0733C170.866 73.3838 171.084 73.845 171.482 73.845H198.219V73.8428Z" fill="url(#paint4_linear_160_3991)"/>
<path d="M140.241 47.0093C139.802 47.0093 139.465 46.611 139.55 46.1813C139.755 45.1575 140.492 43.4408 143.094 42.5475C146.952 41.22 148.397 44.2373 148.397 44.2373C148.397 44.2373 148.759 41.2223 150.929 41.3415C153.099 41.4608 153.701 43.6343 153.701 43.6343C153.701 43.6343 155.63 33.6218 162.62 33.7433C169.61 33.8648 171.539 40.8465 171.539 40.8465C171.539 40.8465 171.539 37.161 177.245 35.955C182.952 34.749 184.235 44.64 184.235 44.64C184.235 44.64 187.812 42.7478 189.4 45.9923C189.629 46.4603 189.294 47.0115 188.772 47.0115H140.241V47.0093Z" fill="url(#paint5_linear_160_3991)"/>
<path d="M28.5643 84.8272C28.2856 84.8272 28.072 84.5752 28.1282 84.303C28.2586 83.655 28.7262 82.5682 30.372 82.0012C32.8136 81.162 33.7287 83.07 33.7287 83.07C33.7287 83.07 33.958 81.1597 35.3317 81.2362C36.7054 81.3127 37.0877 82.6875 37.0877 82.6875C37.0877 82.6875 38.3085 76.3492 42.7354 76.4257C47.1623 76.5022 48.3831 80.9235 48.3831 80.9235C48.3831 80.9235 48.3831 78.5902 51.9961 77.8252C55.6092 77.0602 56.423 83.3242 56.423 83.3242C56.423 83.3242 58.6871 82.1272 59.6921 84.1815C59.8382 84.4785 59.6246 84.8272 59.2941 84.8272H28.5643Z" fill="url(#paint6_linear_160_3991)"/>
<path d="M49.1839 38.8755C48.6241 38.8755 48.2891 38.2477 48.6084 37.7865C49.2266 36.891 50.3103 35.766 51.8774 35.7255C54.4899 35.658 55.4949 37.602 55.4949 37.602C55.4949 37.602 55.4275 33.3112 58.4424 32.5057C61.4574 31.7002 62.3949 34.5172 62.3949 34.5172C62.3949 34.5172 63.3325 26.6062 69.63 25.533C75.9275 24.4597 79.4775 30.6292 79.7451 33.8467C79.7451 33.8467 81.4875 32.5057 83.8325 33.7117C86.1775 34.9177 85.8425 37.1317 85.8425 37.1317C85.8425 37.1317 87.3151 36.2137 88.4865 37.0755C88.7878 37.296 89.0171 37.5232 89.1902 37.737C89.5589 38.1937 89.2374 38.8755 88.6506 38.8755H49.1839Z" fill="url(#paint7_linear_160_3991)"/>
<path d="M183.698 107.149H39.8086V163.802H183.698V107.149Z" fill="url(#paint8_linear_160_3991)"/>
<path d="M185.825 163.802H37.682C37.1199 163.802 36.677 163.321 36.7264 162.758L37.1783 157.54C37.2098 157.167 37.5223 156.881 37.8978 156.881H185.609C185.982 156.881 186.295 157.167 186.328 157.54L186.78 162.758C186.83 163.321 186.387 163.802 185.825 163.802Z" fill="url(#paint9_linear_160_3991)"/>
<path d="M174.364 127.044H160.092V142.951H174.364V127.044Z" fill="url(#paint10_linear_160_3991)"/>
<path d="M174.364 127.044V128.545H161.593V142.951H160.094V127.044H174.364Z" fill="url(#paint11_linear_160_3991)"/>
<path d="M158.674 125.624V144.369H175.783V125.624H158.674ZM174.367 142.952H160.095V135.221H174.367V142.952ZM174.367 134.078H160.095V127.042H174.367V134.078Z" fill="url(#paint12_linear_160_3991)"/>
<path d="M177.627 144.369H156.832V155.241H177.627V144.369Z" fill="url(#paint13_linear_160_3991)"/>
<path d="M177.627 144.369H156.832V146.693H177.627V144.369Z" fill="url(#paint14_linear_160_3991)"/>
<path d="M175.824 144.369C175.858 144.247 175.867 144.094 175.842 143.894C175.552 141.633 173.814 143.944 173.814 143.944C173.814 143.944 174.684 141.799 173.524 141.392C172.58 141.061 171.829 142.112 171.582 142.515C171.784 142.139 172.236 141.122 171.728 140.287C171.092 139.243 169.99 142.101 169.99 142.101C169.99 142.101 169.686 139.086 167.231 139.086C164.776 139.086 164.473 142.101 164.473 142.101C164.473 142.101 163.371 139.246 162.735 140.287C162.224 141.122 162.678 142.139 162.881 142.515C162.633 142.112 161.882 141.061 160.938 141.392C159.78 141.797 160.648 143.944 160.648 143.944C160.648 143.944 158.91 141.633 158.62 143.894C158.595 144.094 158.602 144.25 158.638 144.369H175.824Z" fill="url(#paint15_linear_160_3991)"/>
<path d="M148.225 127.044H133.953V142.951H148.225V127.044Z" fill="url(#paint16_linear_160_3991)"/>
<path d="M148.225 127.044V128.545H135.455V142.951H133.953V127.044H148.225Z" fill="url(#paint17_linear_160_3991)"/>
<path d="M132.535 125.624V144.369H149.645V125.624H132.535ZM148.226 142.952H133.954V135.221H148.226V142.952ZM148.226 134.078H133.954V127.042H148.226V134.078Z" fill="url(#paint18_linear_160_3991)"/>
<path d="M151.488 144.369H130.693V155.241H151.488V144.369Z" fill="url(#paint19_linear_160_3991)"/>
<path d="M151.488 144.369H130.693V146.693H151.488V144.369Z" fill="url(#paint20_linear_160_3991)"/>
<path d="M149.682 144.369C149.715 144.247 149.724 144.094 149.7 143.894C149.41 141.633 147.672 143.944 147.672 143.944C147.672 143.944 148.542 141.799 147.382 141.392C146.437 141.061 145.686 142.112 145.439 142.515C145.641 142.139 146.093 141.122 145.585 140.287C144.949 139.243 143.847 142.101 143.847 142.101C143.847 142.101 143.544 139.086 141.089 139.086C138.633 139.086 138.33 142.101 138.33 142.101C138.33 142.101 137.228 139.246 136.592 140.287C136.082 141.122 136.536 142.139 136.738 142.515C136.491 142.112 135.74 141.061 134.796 141.392C133.638 141.797 134.506 143.944 134.506 143.944C134.506 143.944 132.768 141.633 132.478 143.894C132.453 144.094 132.46 144.25 132.496 144.369H149.682Z" fill="url(#paint21_linear_160_3991)"/>
<path d="M122.816 120.202H101.26V156.881H122.816V120.202Z" fill="url(#paint22_linear_160_3991)"/>
<path d="M120.638 134.21C120.346 134.21 120.107 133.972 120.107 133.679V131.989C120.107 131.697 120.346 131.458 120.638 131.458C120.93 131.458 121.169 131.697 121.169 131.989V133.679C121.169 133.974 120.933 134.21 120.638 134.21Z" fill="white"/>
<path d="M120.638 144.958C120.346 144.958 120.107 144.72 120.107 144.427V140.348C120.107 140.056 120.346 139.817 120.638 139.817C120.93 139.817 121.169 140.056 121.169 140.348V144.427C121.169 144.722 120.933 144.958 120.638 144.958Z" fill="white"/>
<path d="M122.816 121.705V120.202H101.26V137.713V139.216V156.881H102.762V139.216H122.816V137.713H102.762V121.705H122.816Z" fill="url(#paint23_linear_160_3991)"/>
<path d="M99.457 118.399V163.804H124.62V118.399H99.457ZM122.817 120.202V136.314H101.26V120.202H122.817ZM101.26 156.883V137.716H122.817V156.883H101.26Z" fill="url(#paint24_linear_160_3991)"/>
<path d="M44.6973 156.881V150.3H93.1392V156.881H44.6973Z" fill="url(#paint25_linear_160_3991)"/>
<path d="M46.5 150.3V120.202H91.3356V150.3H46.5Z" fill="url(#paint26_linear_160_3991)"/>
<path d="M91.3359 120.202V121.705H47.9999V150.3H46.498V120.202H91.3359Z" fill="url(#paint27_linear_160_3991)"/>
<path d="M44.6973 118.399V152.102H93.1369V118.399H44.6973ZM91.336 150.3H46.5004V131.195H91.3383V150.3H91.336ZM91.336 129.746H46.5004V120.202H91.3383V129.746H91.336Z" fill="url(#paint28_linear_160_3991)"/>
<path opacity="0.3" d="M183.698 107.149H39.8086V131.195H183.698V107.149Z" fill="url(#paint29_linear_160_3991)"/>
<path d="M188.641 120.767H34.8618C34.2278 120.767 33.7129 120.251 33.7129 119.617V114.03C33.7129 109.341 37.5103 105.541 42.1957 105.541H181.307C185.993 105.541 189.79 109.341 189.79 114.03V119.615C189.792 120.251 189.277 120.767 188.641 120.767Z" fill="url(#paint30_linear_160_3991)"/>
<path d="M33.7129 114.03V119.615C33.7129 120.249 34.2278 120.764 34.8618 120.764H188.641C189.275 120.764 189.79 120.249 189.79 119.615V114.03C189.79 113.733 189.774 113.441 189.745 113.153H33.7579C33.7286 113.443 33.7129 113.735 33.7129 114.03Z" fill="url(#paint31_linear_160_3991)"/>
<path d="M53.2593 105.541C48.8706 105.541 45.2599 108.875 44.8215 113.155C44.7922 113.443 44.7765 113.735 44.7765 114.032V120.769H34.8637C34.2275 120.769 33.7148 120.251 33.7148 119.619V114.035C33.7148 113.884 33.7171 113.74 33.7261 113.594C33.7328 113.447 33.7441 113.301 33.7598 113.157C34.1982 108.88 37.809 105.543 42.1954 105.543H53.2593V105.541Z" fill="url(#paint32_linear_160_3991)"/>
<path d="M74.258 105.541C69.8693 105.541 66.2585 108.875 65.8201 113.155C65.7909 113.443 65.7751 113.735 65.7751 114.032V120.769H54.709V113.265C54.709 113.229 54.709 113.191 54.7112 113.155C54.7674 108.941 58.2006 105.541 62.4274 105.541H74.258Z" fill="url(#paint33_linear_160_3991)"/>
<path d="M95.2554 105.541C90.869 105.541 87.256 108.875 86.8175 113.155C86.7883 113.443 86.7726 113.735 86.7726 114.032V120.769H75.7109V113.265C75.7109 113.229 75.7109 113.191 75.7132 113.155C75.7694 108.941 79.2025 105.541 83.4249 105.541H95.2554Z" fill="url(#paint34_linear_160_3991)"/>
<path d="M111.752 105.541C107.364 105.541 106.388 108.875 106.28 113.155C106.273 113.443 106.271 113.735 106.271 114.032V120.769H96.709V113.265C96.709 113.229 96.709 113.191 96.7112 113.155C96.7674 108.941 100.201 105.541 104.423 105.541H111.752Z" fill="url(#paint35_linear_160_3991)"/>
<path d="M189.793 114.032V119.617C189.793 120.251 189.276 120.767 188.644 120.767H178.729V114.03C178.729 113.733 178.713 113.441 178.684 113.153C178.246 108.875 174.635 105.539 170.246 105.539H181.312C185.699 105.539 189.312 108.873 189.75 113.153V113.162C189.766 113.303 189.777 113.445 189.784 113.589C189.784 113.591 189.784 113.591 189.784 113.596C189.791 113.74 189.793 113.884 189.793 114.032Z" fill="url(#paint36_linear_160_3991)"/>
<path d="M168.793 113.265V120.767H157.727V114.03C157.727 113.733 157.711 113.441 157.682 113.153C157.244 108.875 153.633 105.539 149.244 105.539H161.075C165.302 105.539 168.732 108.936 168.791 113.153C168.793 113.191 168.793 113.229 168.793 113.265Z" fill="url(#paint37_linear_160_3991)"/>
<path d="M147.794 113.265V120.767H136.733V114.03C136.733 113.733 136.717 113.441 136.688 113.153C136.249 108.875 132.634 105.539 128.25 105.539H140.081C144.305 105.539 147.736 108.936 147.792 113.153C147.794 113.191 147.794 113.229 147.794 113.265Z" fill="url(#paint38_linear_160_3991)"/>
<path d="M126.795 113.265V120.767H117.233V114.03C117.233 113.733 117.231 113.441 117.224 113.153C117.116 108.875 116.141 105.539 111.752 105.539H119.079C123.306 105.539 126.735 108.936 126.791 113.153C126.795 113.191 126.795 113.229 126.795 113.265Z" fill="url(#paint39_linear_160_3991)"/>
<path d="M44.8215 113.155C44.7922 113.443 44.7765 113.735 44.7765 114.032V120.769H34.8637C34.2275 120.769 33.7148 120.251 33.7148 119.619V114.035C33.7148 113.884 33.7171 113.74 33.7261 113.594C33.7328 113.447 33.7441 113.301 33.7553 113.157H44.8215V113.155Z" fill="url(#paint40_linear_160_3991)"/>
<path d="M54.7135 113.155H65.8201C65.7909 113.443 65.7751 113.735 65.7751 114.032V120.769H54.709V113.265C54.709 113.229 54.709 113.191 54.7135 113.155Z" fill="url(#paint41_linear_160_3991)"/>
<path d="M75.7127 113.155H86.8171C86.7878 113.443 86.7721 113.735 86.7721 114.032V120.769H75.7105V113.265C75.7082 113.229 75.7082 113.191 75.7127 113.155Z" fill="url(#paint42_linear_160_3991)"/>
<path d="M96.7135 113.155H106.28C106.273 113.443 106.271 113.735 106.271 114.032V120.769H96.709V113.265C96.709 113.229 96.709 113.191 96.7135 113.155Z" fill="url(#paint43_linear_160_3991)"/>
<path d="M126.793 113.155C126.796 113.191 126.796 113.229 126.796 113.265V120.767H117.234V114.03C117.234 113.733 117.231 113.441 117.225 113.153H126.793V113.155Z" fill="url(#paint44_linear_160_3991)"/>
<path d="M147.792 113.155C147.794 113.191 147.794 113.229 147.794 113.265V120.767H136.732V114.03C136.732 113.733 136.717 113.441 136.688 113.153H147.792V113.155Z" fill="url(#paint45_linear_160_3991)"/>
<path d="M168.79 113.155C168.793 113.191 168.793 113.229 168.793 113.265V120.767H157.727V114.03C157.727 113.733 157.711 113.441 157.682 113.153H168.79V113.155Z" fill="url(#paint46_linear_160_3991)"/>
<path d="M189.792 114.032V119.617C189.792 120.251 189.275 120.767 188.644 120.767H178.729V114.03C178.729 113.733 178.713 113.441 178.684 113.153H189.75V113.162C189.765 113.303 189.777 113.445 189.783 113.589C189.783 113.591 189.783 113.591 189.783 113.596C189.79 113.74 189.792 113.884 189.792 114.032Z" fill="url(#paint47_linear_160_3991)"/>
<path d="M180.306 101.115H43.1958C42.6427 101.115 42.1953 101.563 42.1953 102.116V105.541H181.307V102.116C181.307 101.563 180.859 101.115 180.306 101.115Z" fill="url(#paint48_linear_160_3991)"/>
<path d="M178.191 94.5496H45.3122C44.7546 94.5496 44.3027 95.0018 44.3027 95.5598V101.117H179.201V95.5598C179.201 95.0018 178.749 94.5496 178.191 94.5496Z" fill="url(#paint49_linear_160_3991)"/>
<path d="M130.254 44.478V52.4273H175.519V45.9135C175.519 45.1215 174.874 44.478 174.08 44.478H130.254Z" fill="url(#paint50_linear_160_3991)"/>
<path d="M93.5619 44.478V52.4273H48.2969V45.9135C48.2969 45.1215 48.9421 44.478 49.7358 44.478H93.5619Z" fill="url(#paint51_linear_160_3991)"/>
<path d="M129.94 49.1625H93.5625V41.184C93.5625 40.7362 93.9245 40.3762 94.3696 40.3762H129.131C129.578 40.3762 129.938 40.7385 129.938 41.184V49.1625H129.94Z" fill="url(#paint52_linear_160_3991)"/>
<path d="M93.2512 55.7124H46.8125V94.5474H93.2512V55.7124Z" fill="url(#paint53_linear_160_3991)"/>
<path d="M130.568 55.7124H177.007V94.5497H130.568V55.7124Z" fill="url(#paint54_linear_160_3991)"/>
<path d="M130.255 52.4453H93.25V94.5496H130.255V52.4453Z" fill="url(#paint55_linear_160_3991)"/>
<path d="M156.32 93.1478V86.7915H171.008V93.1478H156.32Z" fill="url(#paint56_linear_160_3991)"/>
<path d="M157.74 85.3718V63.4883H169.591V85.3718H157.74Z" fill="url(#paint57_linear_160_3991)"/>
<path d="M169.589 63.4861V64.3883H158.642V85.3741H157.74V63.4861H169.589Z" fill="url(#paint58_linear_160_3991)"/>
<path d="M156.301 62.0371V86.7916H171.009V62.0371H156.301ZM169.59 85.3719H157.719V71.6311H169.59V85.3719ZM169.59 70.4904H157.719V63.4546H169.59V70.4904Z" fill="url(#paint59_linear_160_3991)"/>
<path d="M135.959 93.1478V86.7915H150.647V93.1478H135.959Z" fill="url(#paint60_linear_160_3991)"/>
<path d="M137.379 85.3718V63.4883H149.23V85.3718H137.379Z" fill="url(#paint61_linear_160_3991)"/>
<path d="M149.229 63.4861V64.3883H138.28V85.3741H137.381V63.4861H149.229Z" fill="url(#paint62_linear_160_3991)"/>
<path d="M135.939 62.0371V86.7916H150.648V62.0371H135.939ZM149.229 85.3719H137.358V71.6311H149.229V85.3719ZM149.229 70.4904H137.358V63.4546H149.229V70.4904Z" fill="url(#paint63_linear_160_3991)"/>
<path d="M72.875 93.1478V86.7915H87.5632V93.1478H72.875Z" fill="url(#paint64_linear_160_3991)"/>
<path d="M74.2949 85.3718V63.4883H86.1457V85.3718H74.2949Z" fill="url(#paint65_linear_160_3991)"/>
<path d="M86.1457 63.4861V64.3883H75.1965V85.3741H74.2949V63.4861H86.1457Z" fill="url(#paint66_linear_160_3991)"/>
<path d="M72.8555 62.0371V86.7916H87.5639V62.0371H72.8555ZM86.1452 85.3719H74.2741V71.6311H86.1452V85.3719ZM86.1452 70.4904H74.2741V63.4546H86.1452V70.4904Z" fill="url(#paint67_linear_160_3991)"/>
<path d="M52.5156 93.1478V86.7915H67.2038V93.1478H52.5156Z" fill="url(#paint68_linear_160_3991)"/>
<path d="M53.9355 85.3718V63.4883H65.7886V85.3718H53.9355Z" fill="url(#paint69_linear_160_3991)"/>
<path d="M65.7861 63.4861V64.3883H54.8368V85.3741H53.9375V63.4861H65.7861Z" fill="url(#paint70_linear_160_3991)"/>
<path d="M52.498 62.0371V86.7916H67.2064V62.0371H52.498ZM65.7878 85.3719H53.9167V71.6311H65.7878V85.3719ZM65.7878 70.4904H53.9167V63.4546H65.7878V70.4904Z" fill="url(#paint71_linear_160_3991)"/>
<path d="M130.568 52.4272V55.71H179.925C180.22 55.71 180.456 55.4737 180.456 55.179V52.9582C180.456 52.6657 180.22 52.4272 179.925 52.4272H130.568Z" fill="url(#paint72_linear_160_3991)"/>
<path d="M93.2509 52.4272V55.71H43.8939C43.5994 55.71 43.3633 55.4737 43.3633 55.179V52.9582C43.3633 52.6657 43.5994 52.4272 43.8939 52.4272H93.2509Z" fill="url(#paint73_linear_160_3991)"/>
<path d="M131.884 52.4453H91.6209C91.3736 52.4453 91.1758 52.245 91.1758 51.9998V49.6103C91.1758 49.3628 91.3759 49.1648 91.6209 49.1648H131.884C132.131 49.1648 132.329 49.365 132.329 49.6103V51.9998C132.331 52.245 132.131 52.4453 131.884 52.4453Z" fill="url(#paint74_linear_160_3991)"/>
<path d="M121.787 71.4668H113.783V63.4568H109.722V71.4668H101.721V75.528H109.722V83.538H113.783V75.528H121.787V71.4668Z" fill="url(#paint75_linear_160_3991)"/>
<path d="M31.0488 122.774C33.0367 122.774 34.6483 120.641 34.6483 118.01C34.6483 115.38 33.0367 113.247 31.0488 113.247C29.0608 113.247 27.4492 115.38 27.4492 118.01C27.4492 120.641 29.0608 122.774 31.0488 122.774Z" fill="url(#paint76_linear_160_3991)"/>
<path d="M33.8812 163.235L33.571 162.941C33.5125 162.884 33.4361 162.855 33.3551 162.855H32.9819V160.958C32.9819 160.511 32.6469 160.144 32.213 160.092V156.832C32.213 156.465 31.9837 156.155 31.6599 156.033V122.951H32.0849C32.5952 122.951 33.0067 122.537 33.0067 122.029H29.0924C29.0924 122.54 29.506 122.951 30.0142 122.951H30.4391V156.033C30.1153 156.155 29.886 156.467 29.886 156.832V160.092C29.4521 160.144 29.1171 160.511 29.1171 160.958V162.855H28.7439C28.6629 162.855 28.5865 162.887 28.528 162.941L28.2178 163.235C28.1548 163.294 28.1211 163.377 28.1211 163.463V163.487C28.1211 163.661 28.2605 163.802 28.4359 163.802H33.6677C33.8408 163.802 33.9824 163.663 33.9824 163.487V163.463C33.9779 163.377 33.9419 163.296 33.8812 163.235Z" fill="url(#paint77_linear_160_3991)"/>
<path d="M34.2117 114.305C34.0093 114.102 33.7328 113.974 33.427 113.96C33.3551 112.707 32.3186 111.715 31.0483 111.715C29.778 111.715 28.7416 112.707 28.6696 113.96C28.1682 113.978 27.7456 114.314 27.5972 114.77C27.5387 114.95 27.6826 115.133 27.8715 115.133H28.9012H33.1932H34.2229C34.4118 115.133 34.5557 114.948 34.4972 114.768C34.441 114.593 34.3421 114.433 34.2117 114.305Z" fill="url(#paint78_linear_160_3991)"/>
<defs>
<linearGradient id="paint0_linear_160_3991" x1="111.752" y1="151.797" x2="111.752" y2="184.538" gradientUnits="userSpaceOnUse">
<stop stop-color="#FFC38B"/>
<stop offset="1" stop-color="#FFF3CD"/>
</linearGradient>
<linearGradient id="paint1_linear_160_3991" x1="180.564" y1="94.6781" x2="180.564" y2="167.111" gradientUnits="userSpaceOnUse">
<stop stop-color="#68C7E3"/>
<stop offset="1" stop-color="#68C7E3" stop-opacity="0"/>
</linearGradient>
<linearGradient id="paint2_linear_160_3991" x1="191.334" y1="128.266" x2="191.334" y2="175.329" gradientUnits="userSpaceOnUse">
<stop stop-color="#45B1CE"/>
<stop offset="1" stop-color="#45B1CE" stop-opacity="0"/>
</linearGradient>
<linearGradient id="paint3_linear_160_3991" x1="32.4868" y1="132.892" x2="32.4868" y2="180.233" gradientUnits="userSpaceOnUse">
<stop stop-color="#45B1CE"/>
<stop offset="1" stop-color="#45B1CE" stop-opacity="0"/>
</linearGradient>
<linearGradient id="paint4_linear_160_3991" x1="184.606" y1="66.0998" x2="185.061" y2="79.6349" gradientUnits="userSpaceOnUse">
<stop stop-color="white"/>
<stop offset="1" stop-color="white" stop-opacity="0"/>
</linearGradient>
<linearGradient id="paint5_linear_160_3991" x1="164.855" y1="35.8884" x2="164.192" y2="55.6104" gradientUnits="userSpaceOnUse">
<stop stop-color="white"/>
<stop offset="1" stop-color="white" stop-opacity="0"/>
</linearGradient>
<linearGradient id="paint6_linear_160_3991" x1="44.1473" y1="77.7862" x2="43.728" y2="90.2722" gradientUnits="userSpaceOnUse">
<stop stop-color="white"/>
<stop offset="1" stop-color="white" stop-opacity="0"/>
</linearGradient>
<linearGradient id="paint7_linear_160_3991" x1="69.276" y1="27.4478" x2="68.6051" y2="47.426" gradientUnits="userSpaceOnUse">
<stop stop-color="white"/>
<stop offset="1" stop-color="white" stop-opacity="0"/>
</linearGradient>
<linearGradient id="paint8_linear_160_3991" x1="111.753" y1="165.67" x2="111.753" y2="133.021" gradientUnits="userSpaceOnUse">
<stop stop-color="#ABF0E9"/>
<stop offset="1" stop-color="#D4F3EF"/>
</linearGradient>
<linearGradient id="paint9_linear_160_3991" x1="111.753" y1="165.284" x2="111.753" y2="148.602" gradientUnits="userSpaceOnUse">
<stop stop-color="#3797A4"/>
<stop offset="1" stop-color="#8CCBBE"/>
</linearGradient>
<linearGradient id="paint10_linear_160_3991" x1="176.801" y1="109.825" x2="167.719" y2="133.672" gradientUnits="userSpaceOnUse">
<stop stop-color="#4099F1"/>
<stop offset="1" stop-color="#ACD4F3"/>
</linearGradient>
<linearGradient id="paint11_linear_160_3991" x1="143.238" y1="103.192" x2="180.714" y2="152.8" gradientUnits="userSpaceOnUse">
<stop stop-color="#4099F1"/>
<stop offset="1" stop-color="#4099F1" stop-opacity="0"/>
</linearGradient>
<linearGradient id="paint12_linear_160_3991" x1="167.23" y1="143.363" x2="167.23" y2="131.653" gradientUnits="userSpaceOnUse">
<stop stop-color="#FAF1FC"/>
<stop offset="1" stop-color="white"/>
</linearGradient>
<linearGradient id="paint13_linear_160_3991" x1="166.519" y1="135.495" x2="167.549" y2="156.224" gradientUnits="userSpaceOnUse">
<stop stop-color="#8CCBBE"/>
<stop offset="1" stop-color="#8CCBBE" stop-opacity="0"/>
</linearGradient>
<linearGradient id="paint14_linear_160_3991" x1="162.664" y1="157.247" x2="166.432" y2="147.592" gradientUnits="userSpaceOnUse">
<stop stop-color="#FAF1FC"/>
<stop offset="1" stop-color="white"/>
</linearGradient>
<linearGradient id="paint15_linear_160_3991" x1="167.23" y1="146.679" x2="167.23" y2="137.105" gradientUnits="userSpaceOnUse">
<stop stop-color="#45B649"/>
<stop offset="1" stop-color="#DCE35B"/>
</linearGradient>
<linearGradient id="paint16_linear_160_3991" x1="150.662" y1="109.825" x2="141.58" y2="133.672" gradientUnits="userSpaceOnUse">
<stop stop-color="#4099F1"/>
<stop offset="1" stop-color="#ACD4F3"/>
</linearGradient>
<linearGradient id="paint17_linear_160_3991" x1="117.1" y1="103.192" x2="154.575" y2="152.8" gradientUnits="userSpaceOnUse">
<stop stop-color="#4099F1"/>
<stop offset="1" stop-color="#4099F1" stop-opacity="0"/>
</linearGradient>
<linearGradient id="paint18_linear_160_3991" x1="141.091" y1="143.363" x2="141.091" y2="131.653" gradientUnits="userSpaceOnUse">
<stop stop-color="#FAF1FC"/>
<stop offset="1" stop-color="white"/>
</linearGradient>
<linearGradient id="paint19_linear_160_3991" x1="140.38" y1="135.495" x2="141.41" y2="156.224" gradientUnits="userSpaceOnUse">
<stop stop-color="#8CCBBE"/>
<stop offset="1" stop-color="#8CCBBE" stop-opacity="0"/>
</linearGradient>
<linearGradient id="paint20_linear_160_3991" x1="136.525" y1="157.247" x2="140.293" y2="147.592" gradientUnits="userSpaceOnUse">
<stop stop-color="#FAF1FC"/>
<stop offset="1" stop-color="white"/>
</linearGradient>
<linearGradient id="paint21_linear_160_3991" x1="141.089" y1="146.679" x2="141.089" y2="137.105" gradientUnits="userSpaceOnUse">
<stop stop-color="#45B649"/>
<stop offset="1" stop-color="#DCE35B"/>
</linearGradient>
<linearGradient id="paint22_linear_160_3991" x1="137.506" y1="88.3228" x2="104.851" y2="152.616" gradientUnits="userSpaceOnUse">
<stop stop-color="#4099F1"/>
<stop offset="1" stop-color="#ACD4F3"/>
</linearGradient>
<linearGradient id="paint23_linear_160_3991" x1="84.7279" y1="102.972" x2="151.372" y2="189.64" gradientUnits="userSpaceOnUse">
<stop stop-color="#4099F1"/>
<stop offset="1" stop-color="#4099F1" stop-opacity="0"/>
</linearGradient>
<linearGradient id="paint24_linear_160_3991" x1="124.036" y1="93.2558" x2="111.281" y2="144.045" gradientUnits="userSpaceOnUse">
<stop stop-color="#FAF1FC"/>
<stop offset="1" stop-color="white"/>
</linearGradient>
<linearGradient id="paint25_linear_160_3991" x1="68.9181" y1="148.867" x2="68.9181" y2="158.042" gradientUnits="userSpaceOnUse">
<stop stop-color="#8CCBBE"/>
<stop offset="1" stop-color="#8CCBBE" stop-opacity="0"/>
</linearGradient>
<linearGradient id="paint26_linear_160_3991" x1="68.9177" y1="85.1332" x2="68.9177" y2="156.83" gradientUnits="userSpaceOnUse">
<stop stop-color="#4099F1"/>
<stop offset="1" stop-color="#ACD4F3"/>
</linearGradient>
<linearGradient id="paint27_linear_160_3991" x1="65.8737" y1="124.27" x2="75.6655" y2="159.545" gradientUnits="userSpaceOnUse">
<stop stop-color="#4099F1"/>
<stop offset="1" stop-color="#4099F1" stop-opacity="0"/>
</linearGradient>
<linearGradient id="paint28_linear_160_3991" x1="84.4117" y1="104.641" x2="61.9982" y2="148.855" gradientUnits="userSpaceOnUse">
<stop stop-color="#FAF1FC"/>
<stop offset="1" stop-color="white"/>
</linearGradient>
<linearGradient id="paint29_linear_160_3991" x1="111.753" y1="103.867" x2="111.753" y2="146.188" gradientUnits="userSpaceOnUse">
<stop/>
<stop offset="1" stop-opacity="0"/>
</linearGradient>
<linearGradient id="paint30_linear_160_3991" x1="111.596" y1="87.3693" x2="111.725" y2="111.704" gradientUnits="userSpaceOnUse">
<stop stop-color="#D5D7FC"/>
<stop offset="1" stop-color="#FAF1FC"/>
</linearGradient>
<linearGradient id="paint31_linear_160_3991" x1="111.752" y1="114.297" x2="111.752" y2="128.787" gradientUnits="userSpaceOnUse">
<stop stop-color="#D5D7FC"/>
<stop offset="1" stop-color="#FAF1FC"/>
</linearGradient>
<linearGradient id="paint32_linear_160_3991" x1="43.4868" y1="91.3136" x2="43.4868" y2="111.047" gradientUnits="userSpaceOnUse">
<stop stop-color="#3797A4"/>
<stop offset="1" stop-color="#8CCBBE"/>
</linearGradient>
<linearGradient id="paint33_linear_160_3991" x1="64.484" y1="91.3136" x2="64.484" y2="111.047" gradientUnits="userSpaceOnUse">
<stop stop-color="#3797A4"/>
<stop offset="1" stop-color="#8CCBBE"/>
</linearGradient>
<linearGradient id="paint34_linear_160_3991" x1="85.4823" y1="91.3136" x2="85.4823" y2="111.047" gradientUnits="userSpaceOnUse">
<stop stop-color="#3797A4"/>
<stop offset="1" stop-color="#8CCBBE"/>
</linearGradient>
<linearGradient id="paint35_linear_160_3991" x1="104.231" y1="91.3136" x2="104.231" y2="111.047" gradientUnits="userSpaceOnUse">
<stop stop-color="#3797A4"/>
<stop offset="1" stop-color="#8CCBBE"/>
</linearGradient>
<linearGradient id="paint36_linear_160_3991" x1="180.019" y1="91.3136" x2="180.019" y2="111.047" gradientUnits="userSpaceOnUse">
<stop stop-color="#3797A4"/>
<stop offset="1" stop-color="#8CCBBE"/>
</linearGradient>
<linearGradient id="paint37_linear_160_3991" x1="159.019" y1="91.3136" x2="159.019" y2="111.047" gradientUnits="userSpaceOnUse">
<stop stop-color="#3797A4"/>
<stop offset="1" stop-color="#8CCBBE"/>
</linearGradient>
<linearGradient id="paint38_linear_160_3991" x1="138.022" y1="91.3136" x2="138.022" y2="111.047" gradientUnits="userSpaceOnUse">
<stop stop-color="#3797A4"/>
<stop offset="1" stop-color="#8CCBBE"/>
</linearGradient>
<linearGradient id="paint39_linear_160_3991" x1="119.274" y1="91.3136" x2="119.274" y2="111.047" gradientUnits="userSpaceOnUse">
<stop stop-color="#3797A4"/>
<stop offset="1" stop-color="#8CCBBE"/>
</linearGradient>
<linearGradient id="paint40_linear_160_3991" x1="39.2674" y1="112.172" x2="39.2674" y2="137.862" gradientUnits="userSpaceOnUse">
<stop stop-color="#3797A4"/>
<stop offset="1" stop-color="#8CCBBE"/>
</linearGradient>
<linearGradient id="paint41_linear_160_3991" x1="60.2647" y1="112.172" x2="60.2647" y2="137.862" gradientUnits="userSpaceOnUse">
<stop stop-color="#3797A4"/>
<stop offset="1" stop-color="#8CCBBE"/>
</linearGradient>
<linearGradient id="paint42_linear_160_3991" x1="81.2625" y1="112.172" x2="81.2625" y2="137.862" gradientUnits="userSpaceOnUse">
<stop stop-color="#3797A4"/>
<stop offset="1" stop-color="#8CCBBE"/>
</linearGradient>
<linearGradient id="paint43_linear_160_3991" x1="101.495" y1="112.172" x2="101.495" y2="137.862" gradientUnits="userSpaceOnUse">
<stop stop-color="#3797A4"/>
<stop offset="1" stop-color="#8CCBBE"/>
</linearGradient>
<linearGradient id="paint44_linear_160_3991" x1="122.011" y1="112.172" x2="122.011" y2="137.862" gradientUnits="userSpaceOnUse">
<stop stop-color="#3797A4"/>
<stop offset="1" stop-color="#8CCBBE"/>
</linearGradient>
<linearGradient id="paint45_linear_160_3991" x1="142.241" y1="112.172" x2="142.241" y2="137.862" gradientUnits="userSpaceOnUse">
<stop stop-color="#3797A4"/>
<stop offset="1" stop-color="#8CCBBE"/>
</linearGradient>
<linearGradient id="paint46_linear_160_3991" x1="163.238" y1="112.172" x2="163.238" y2="137.862" gradientUnits="userSpaceOnUse">
<stop stop-color="#3797A4"/>
<stop offset="1" stop-color="#8CCBBE"/>
</linearGradient>
<linearGradient id="paint47_linear_160_3991" x1="184.238" y1="112.172" x2="184.238" y2="137.862" gradientUnits="userSpaceOnUse">
<stop stop-color="#3797A4"/>
<stop offset="1" stop-color="#8CCBBE"/>
</linearGradient>
<linearGradient id="paint48_linear_160_3991" x1="111.902" y1="102.287" x2="112.74" y2="93.8533" gradientUnits="userSpaceOnUse">
<stop stop-color="#D5D7FC"/>
<stop offset="1" stop-color="#FAF1FC"/>
</linearGradient>
<linearGradient id="paint49_linear_160_3991" x1="111.752" y1="101.163" x2="111.752" y2="92.8657" gradientUnits="userSpaceOnUse">
<stop stop-color="#3797A4"/>
<stop offset="1" stop-color="#8CCBBE"/>
</linearGradient>
<linearGradient id="paint50_linear_160_3991" x1="122.478" y1="48.4533" x2="172.342" y2="48.4533" gradientUnits="userSpaceOnUse">
<stop stop-color="#D5D7FC"/>
<stop offset="1" stop-color="#FAF1FC"/>
</linearGradient>
<linearGradient id="paint51_linear_160_3991" x1="101.338" y1="48.4533" x2="51.4737" y2="48.4533" gradientUnits="userSpaceOnUse">
<stop stop-color="#D5D7FC"/>
<stop offset="1" stop-color="#FAF1FC"/>
</linearGradient>
<linearGradient id="paint52_linear_160_3991" x1="111.752" y1="61.8928" x2="111.752" y2="46.433" gradientUnits="userSpaceOnUse">
<stop stop-color="#D5D7FC"/>
<stop offset="1" stop-color="#FAF1FC"/>
</linearGradient>
<linearGradient id="paint53_linear_160_3991" x1="87.5089" y1="75.1307" x2="39.9036" y2="75.1307" gradientUnits="userSpaceOnUse">
<stop stop-color="#D4F3EF"/>
<stop offset="1" stop-color="#F3FFFD"/>
</linearGradient>
<linearGradient id="paint54_linear_160_3991" x1="136.311" y1="75.1307" x2="183.916" y2="75.1307" gradientUnits="userSpaceOnUse">
<stop stop-color="#D4F3EF"/>
<stop offset="1" stop-color="#F3FFFD"/>
</linearGradient>
<linearGradient id="paint55_linear_160_3991" x1="110.858" y1="126.074" x2="111.631" y2="80.6874" gradientUnits="userSpaceOnUse">
<stop stop-color="#D4F3EF"/>
<stop offset="1" stop-color="#F3FFFD"/>
</linearGradient>
<linearGradient id="paint56_linear_160_3991" x1="163.664" y1="78.7599" x2="163.664" y2="93.2478" gradientUnits="userSpaceOnUse">
<stop stop-color="#8CCBBE"/>
<stop offset="1" stop-color="#8CCBBE" stop-opacity="0"/>
</linearGradient>
<linearGradient id="paint57_linear_160_3991" x1="177.051" y1="47.9735" x2="161.831" y2="78.0112" gradientUnits="userSpaceOnUse">
<stop stop-color="#4099F1"/>
<stop offset="1" stop-color="#ACD4F3"/>
</linearGradient>
<linearGradient id="paint58_linear_160_3991" x1="151.604" y1="52.3854" x2="179.04" y2="102.454" gradientUnits="userSpaceOnUse">
<stop stop-color="#4099F1"/>
<stop offset="1" stop-color="#4099F1" stop-opacity="0"/>
</linearGradient>
<linearGradient id="paint59_linear_160_3991" x1="142.425" y1="116.299" x2="162.713" y2="76.3331" gradientUnits="userSpaceOnUse">
<stop stop-color="#FAF1FC"/>
<stop offset="1" stop-color="white"/>
</linearGradient>
<linearGradient id="paint60_linear_160_3991" x1="143.304" y1="78.7599" x2="143.304" y2="93.2478" gradientUnits="userSpaceOnUse">
<stop stop-color="#8CCBBE"/>
<stop offset="1" stop-color="#8CCBBE" stop-opacity="0"/>
</linearGradient>
<linearGradient id="paint61_linear_160_3991" x1="156.691" y1="47.9735" x2="141.47" y2="78.0112" gradientUnits="userSpaceOnUse">
<stop stop-color="#4099F1"/>
<stop offset="1" stop-color="#ACD4F3"/>
</linearGradient>
<linearGradient id="paint62_linear_160_3991" x1="131.243" y1="52.3854" x2="158.679" y2="102.454" gradientUnits="userSpaceOnUse">
<stop stop-color="#4099F1"/>
<stop offset="1" stop-color="#4099F1" stop-opacity="0"/>
</linearGradient>
<linearGradient id="paint63_linear_160_3991" x1="122.064" y1="116.299" x2="142.353" y2="76.3331" gradientUnits="userSpaceOnUse">
<stop stop-color="#FAF1FC"/>
<stop offset="1" stop-color="white"/>
</linearGradient>
<linearGradient id="paint64_linear_160_3991" x1="80.2191" y1="78.7599" x2="80.2191" y2="93.2478" gradientUnits="userSpaceOnUse">
<stop stop-color="#8CCBBE"/>
<stop offset="1" stop-color="#8CCBBE" stop-opacity="0"/>
</linearGradient>
<linearGradient id="paint65_linear_160_3991" x1="93.6061" y1="47.9735" x2="78.3856" y2="78.0112" gradientUnits="userSpaceOnUse">
<stop stop-color="#4099F1"/>
<stop offset="1" stop-color="#ACD4F3"/>
</linearGradient>
<linearGradient id="paint66_linear_160_3991" x1="68.1585" y1="52.3854" x2="95.5947" y2="102.454" gradientUnits="userSpaceOnUse">
<stop stop-color="#4099F1"/>
<stop offset="1" stop-color="#4099F1" stop-opacity="0"/>
</linearGradient>
<linearGradient id="paint67_linear_160_3991" x1="58.98" y1="116.299" x2="79.2681" y2="76.3331" gradientUnits="userSpaceOnUse">
<stop stop-color="#FAF1FC"/>
<stop offset="1" stop-color="white"/>
</linearGradient>
<linearGradient id="paint68_linear_160_3991" x1="59.8605" y1="78.7599" x2="59.8605" y2="93.2478" gradientUnits="userSpaceOnUse">
<stop stop-color="#8CCBBE"/>
<stop offset="1" stop-color="#8CCBBE" stop-opacity="0"/>
</linearGradient>
<linearGradient id="paint69_linear_160_3991" x1="73.2475" y1="47.9735" x2="58.027" y2="78.0112" gradientUnits="userSpaceOnUse">
<stop stop-color="#4099F1"/>
<stop offset="1" stop-color="#ACD4F3"/>
</linearGradient>
<linearGradient id="paint70_linear_160_3991" x1="47.7997" y1="52.3854" x2="75.2358" y2="102.454" gradientUnits="userSpaceOnUse">
<stop stop-color="#4099F1"/>
<stop offset="1" stop-color="#4099F1" stop-opacity="0"/>
</linearGradient>
<linearGradient id="paint71_linear_160_3991" x1="38.6211" y1="116.299" x2="58.9092" y2="76.3331" gradientUnits="userSpaceOnUse">
<stop stop-color="#FAF1FC"/>
<stop offset="1" stop-color="white"/>
</linearGradient>
<linearGradient id="paint72_linear_160_3991" x1="155.512" y1="63.6957" x2="155.512" y2="45.1031" gradientUnits="userSpaceOnUse">
<stop stop-color="#3797A4"/>
<stop offset="1" stop-color="#8CCBBE"/>
</linearGradient>
<linearGradient id="paint73_linear_160_3991" x1="68.3071" y1="63.6957" x2="68.3071" y2="45.1031" gradientUnits="userSpaceOnUse">
<stop stop-color="#3797A4"/>
<stop offset="1" stop-color="#8CCBBE"/>
</linearGradient>
<linearGradient id="paint74_linear_160_3991" x1="109.31" y1="64.2903" x2="112.113" y2="48.8403" gradientUnits="userSpaceOnUse">
<stop stop-color="#3797A4"/>
<stop offset="1" stop-color="#8CCBBE"/>
</linearGradient>
<linearGradient id="paint75_linear_160_3991" x1="111.753" y1="89.6398" x2="111.753" y2="61.7475" gradientUnits="userSpaceOnUse">
<stop stop-color="#3797A4"/>
<stop offset="1" stop-color="#8CCBBE"/>
</linearGradient>
<linearGradient id="paint76_linear_160_3991" x1="24.8644" y1="125.346" x2="32.1058" y2="116.77" gradientUnits="userSpaceOnUse">
<stop stop-color="#FB8D62"/>
<stop offset="1" stop-color="#FDD365"/>
</linearGradient>
<linearGradient id="paint77_linear_160_3991" x1="22.379" y1="174.008" x2="32.2404" y2="140.424" gradientUnits="userSpaceOnUse">
<stop stop-color="#FAF1FC"/>
<stop offset="1" stop-color="white"/>
</linearGradient>
<linearGradient id="paint78_linear_160_3991" x1="30.7438" y1="116.417" x2="32.2533" y2="108.674" gradientUnits="userSpaceOnUse">
<stop stop-color="#FAF1FC"/>
<stop offset="1" stop-color="white"/>
</linearGradient>
</defs>
</svg>
